<svg width="258" height="23" fill="none" xmlns="http://www.w3.org/2000/svg">
  <path d="m.688 22-.063-1.188 1.781-.437c.021-.083.031-.292.031-.625.021-.333.032-.813.032-1.438a75.6 75.6 0 0 0 .031-2.375l.031-6.593c0-.834-.01-1.531-.031-2.094 0-.583-.01-1.042-.031-1.375 0-.333-.01-.531-.031-.594L.5 4.844l.094-1.188h10.812l1.031-.062 1.157-.063.656 4.125-1.438.219L11.75 5.25a1.955 1.955 0 0 0-.531-.063 5.697 5.697 0 0 0-.625-.03H7.125c-.313 0-.667.01-1.063.03-.375 0-.677.021-.906.063 0 .083-.01.24-.031.469v3.437l.031 6.813v2.406c.021.625.042 1.094.063 1.406.02.313.041.51.062.594l2.532.375L7.75 22H.687Zm9.937-6.156-.406-2.25a2.699 2.699 0 0 0-.594-.094c-.25-.02-.552-.031-.906-.031H6.094c-.209 0-.448.01-.719.031-.25 0-.552.01-.906.031v-1.719l.781.063c.292.02.573.031.844.031h2.625c.416 0 .74-.01.969-.031.25-.042.427-.073.53-.094l.407-2.125h1.344v6.188h-1.344Zm9.563 6.406c-.834 0-1.573-.167-2.22-.5-.645-.333-1.155-.76-1.53-1.281-.355-.521-.532-1.063-.532-1.625 0-.709.23-1.292.688-1.75.458-.459 1.208-.854 2.25-1.188l4.75-1.594V12.72c0-.521-.157-.99-.469-1.406a3.209 3.209 0 0 0-1.25-1.032 3.993 3.993 0 0 0-1.75-.375c-.52 0-.875.115-1.063.344-.187.208-.302.635-.343 1.281l-.063 1.313c-.75.166-1.385.146-1.906-.063-.52-.229-.781-.594-.781-1.094 0-.354.146-.708.437-1.062a5.494 5.494 0 0 1 1.219-1 8.565 8.565 0 0 1 1.625-.844 7.843 7.843 0 0 1 1.719-.469c1.541 0 2.77.407 3.687 1.22.938.812 1.417 1.874 1.438 3.187l-.063 5.25c0 .396.01.781.032 1.156.041.375.093.656.156.844l2 .375v.968l-1.532.563a8.717 8.717 0 0 1-.812.25c-.25.083-.458.125-.625.125-.646 0-1.063-.365-1.25-1.094l-.344-1.218h.469c-.688.77-1.354 1.354-2 1.75-.625.375-1.27.562-1.938.562Zm.843-1.844c.48 0 .927-.104 1.344-.312.417-.23.823-.573 1.219-1.032v-3.28l-3.5.937c-.5.125-.865.323-1.094.593-.208.271-.313.615-.313 1.032 0 .52.23 1 .688 1.437a2.45 2.45 0 0 0 1.656.625ZM29.906 22l-.093-1.125 1.937-.469c.02-.104.042-.291.063-.562.02-.271.03-.636.03-1.094.022-.458.032-1.02.032-1.688l.031-2.437c0-.688-.031-1.365-.093-2.031A17.821 17.821 0 0 0 31.655 11l-2-.438v-1.03l4.188-1.157.437.438-.125 2.624.094.032c.625-1.209 1.26-2.021 1.906-2.438.646-.437 1.25-.656 1.813-.656.479 0 .875.125 1.187.375.334.23.5.583.5 1.063 0 .5-.177.885-.531 1.156-.333.25-.76.375-1.281.375-.375 0-.74-.084-1.094-.25a4.146 4.146 0 0 1-.969-.688l.563.188c-.396.25-.771.604-1.125 1.062-.354.438-.677.99-.969 1.656l.031 2.907.063 1.625c.02.562.041 1.073.062 1.531.021.438.042.781.063 1.031l2.718.407-.06 1.187h-7.219Zm11.344 0-.063-1.125 1.938-.469c.02-.146.031-.333.031-.562a25.1 25.1 0 0 0 .063-1c.02-.438.031-1.032.031-1.782l.031-2.437c.021-.438.01-.885-.031-1.344-.02-.458-.052-.885-.094-1.281-.041-.417-.083-.75-.125-1l-2-.438v-1.03l4.188-1.157.531.5-.156 1.688.093.03c.646-.812 1.313-1.395 2-1.75a4.775 4.775 0 0 1 2.157-.53c.729 0 1.437.197 2.125.593.687.396 1.25 1 1.687 1.813.459.812.688 1.854.688 3.125l.031 3.312c0 .75.01 1.427.031 2.032.042.583.094.99.157 1.218l1.874.469L56.344 22H50.25l-.094-1.125 1.719-.469a11.637 11.637 0 0 0 .094-1.562c.02-.396.031-.886.031-1.469l-.031-3.438c0-.895-.146-1.614-.438-2.156-.27-.541-.635-.937-1.093-1.187a3.02 3.02 0 0 0-1.47-.375c-.645 0-1.25.156-1.812.469-.562.312-1.062.802-1.5 1.468v4.688c0 .958.01 1.74.032 2.343.041.584.083.99.124 1.22l1.844.468L47.563 22H41.25Zm17.625 0-.094-1.125 1.782-.469c.02-.166.03-.375.03-.625.022-.25.042-.562.063-.937.021-.396.032-.886.032-1.469v-3.406c0-.917-.157-1.646-.47-2.188-.312-.541-.708-.937-1.187-1.187a2.904 2.904 0 0 0-1.406-.375c-.708 0-1.365.177-1.969.531-.604.354-1.146.896-1.625 1.625l-.593-1.156c.729-1 1.5-1.73 2.312-2.188a5.19 5.19 0 0 1 2.625-.719c.875 0 1.667.209 2.375.626.708.416 1.27 1.02 1.688 1.812.416.792.624 1.75.624 2.875v3.531c0 .75.01 1.427.032 2.032.041.583.083.99.125 1.218l1.937.469L65.094 22h-6.219Zm14.781 0-.062-1.188 1.781-.437c.02-.083.031-.292.031-.625.021-.333.031-.813.031-1.438.021-.645.032-1.437.032-2.375l.031-6.593c0-.834-.01-1.531-.031-2.094 0-.583-.01-1.042-.031-1.375 0-.333-.01-.531-.032-.594l-1.937-.437.094-1.188h10.811l1.031-.062 1.156-.063.657 4.125-1.438.219-1.06-2.625a1.957 1.957 0 0 0-.531-.063 5.694 5.694 0 0 0-.626-.03h-3.468c-.313 0-.667.01-1.063.03-.375 0-.677.021-.906.063 0 .083-.01.24-.031.469v3.437l.031 6.813v2.406c.02.625.042 1.094.063 1.406.02.313.041.51.062.594l2.531.375L80.72 22h-7.063Zm9.938-6.156-.406-2.25a2.698 2.698 0 0 0-.594-.094 11.17 11.17 0 0 0-.906-.031h-2.626c-.208 0-.447.01-.718.031-.25 0-.552.01-.906.031v-1.719l.78.063c.292.02.574.031.844.031h2.626c.416 0 .74-.01.968-.031.25-.042.427-.073.531-.094l.407-2.125h1.344v6.188h-1.344Zm5 6.156-.094-1.125 1.938-.469c.02-.104.041-.291.062-.562.02-.271.031-.636.031-1.094.021-.458.031-1.02.031-1.688l.032-2.437c0-.688-.031-1.365-.094-2.031A17.903 17.903 0 0 0 90.344 11l-2-.438v-1.03l4.187-1.157.438.438-.125 2.624.094.032c.624-1.209 1.26-2.021 1.906-2.438.646-.437 1.25-.656 1.812-.656.48 0 .875.125 1.188.375.333.23.5.583.5 1.063 0 .5-.177.885-.531 1.156-.334.25-.76.375-1.282.375-.375 0-.74-.084-1.094-.25a4.142 4.142 0 0 1-.968-.688l.562.188c-.396.25-.77.604-1.125 1.062-.354.438-.677.99-.969 1.656l.032 2.907.062 1.625c.021.562.042 1.073.063 1.531.02.438.041.781.062 1.031l2.719.407L95.812 22h-7.218Zm17.406.25c-1.208 0-2.302-.27-3.281-.813-.959-.541-1.729-1.312-2.313-2.312-.562-1.02-.844-2.219-.844-3.594 0-1.479.303-2.76.907-3.844.604-1.083 1.396-1.916 2.375-2.5A5.695 5.695 0 0 1 106 8.313c1.625.02 2.896.562 3.812 1.624.917 1.063 1.376 2.563 1.376 4.5V15h-9.594v-1.375h7.531l-.344.406v-.656c0-1.208-.271-2.135-.812-2.781-.542-.646-1.281-.969-2.219-.969-.583 0-1.146.177-1.688.531-.541.334-.979.854-1.312 1.563-.333.687-.5 1.562-.5 2.625v.375c0 1.708.417 3.041 1.25 4 .854.958 1.948 1.437 3.281 1.437.729 0 1.386-.146 1.969-.437.583-.292 1.146-.76 1.688-1.407l.781.72c-.584 1.083-1.323 1.895-2.219 2.437-.896.52-1.896.781-3 .781Zm12.438 0c-.771 0-1.542-.083-2.313-.25-.771-.188-1.427-.427-1.969-.719L114 17.938h1.531l.625 2.25c.729.5 1.563.75 2.5.75.709 0 1.282-.167 1.719-.5.437-.355.656-.823.656-1.407 0-.541-.198-1.01-.593-1.406-.396-.417-1.167-.865-2.313-1.344-1.479-.646-2.521-1.26-3.125-1.843-.604-.605-.906-1.376-.906-2.313 0-.75.218-1.406.656-1.969.458-.583 1.083-1.031 1.875-1.344.792-.333 1.708-.5 2.75-.5.583 0 1.177.053 1.781.157.604.104 1.104.24 1.5.406l.344 3.25h-1.469l-.75-2.125a2.44 2.44 0 0 0-.75-.281 3.394 3.394 0 0 0-.937-.125c-.729 0-1.313.177-1.75.531a1.57 1.57 0 0 0-.656 1.313c0 .624.239 1.135.718 1.53.479.376 1.323.845 2.532 1.407 1.374.625 2.333 1.24 2.874 1.844.542.604.813 1.333.813 2.187 0 1.125-.49 2.052-1.469 2.782-.979.708-2.218 1.062-3.718 1.062Zm7.406-.25-.063-1.125 1.938-.469c.041-.229.073-.573.093-1.031.021-.48.032-1.115.032-1.906.021-.792.031-1.76.031-2.907v-3.906c0-.708-.01-1.469-.031-2.281 0-.813-.011-1.594-.032-2.344 0-.77-.01-1.437-.031-2 0-.562-.01-.937-.031-1.125l-2.312-.312-.063-1 4.406-1.282.594.438-.063 1.938c-.02.645-.041 1.343-.062 2.093 0 .73-.01 1.563-.031 2.5v3.25l.093.031c.73-.791 1.438-1.364 2.126-1.718a5.096 5.096 0 0 1 2.312-.531c.771 0 1.49.197 2.156.593.688.396 1.24 1 1.656 1.813.438.791.657 1.812.657 3.062v3.375c0 .75.021 1.427.062 2.032.042.583.084.99.125 1.218l1.938.469-.063 1.125H135l-.094-1.125 1.813-.469a11.563 11.563 0 0 0 .093-1.562c.021-.396.032-.886.032-1.469V14c0-.896-.156-1.615-.469-2.156-.292-.563-.677-.969-1.156-1.219a3.064 3.064 0 0 0-1.531-.406c-.667 0-1.303.177-1.907.531a4.48 4.48 0 0 0-1.531 1.406v4.688c0 .958.01 1.75.031 2.375.042.625.084 1.02.125 1.187l1.906.469L132.25 22h-6.406Z" fill="#2FB945"/>
  <path d="m160.844 22-.063-1.188 1.907-.437c.041-.083.072-.292.093-.625.042-.354.063-.854.063-1.5a78.96 78.96 0 0 0 .031-2.469V9.906c0-1.02-.01-1.854-.031-2.5 0-.666-.021-1.166-.063-1.5-.021-.354-.052-.562-.093-.625l-1.907-.437.063-1.188h6.718l.094 1.188-1.937.437c-.042.063-.084.271-.125.625a52.45 52.45 0 0 0-.063 1.5V18.25c.021.646.042 1.146.063 1.5.041.333.083.542.125.625l1.937.438-.094 1.187h-6.718Zm-11.25 0-.094-1.188 1.938-.437c.041-.104.062-.344.062-.719.021-.375.031-.885.031-1.531.021-.646.031-1.427.031-2.344V9.906c0-.937-.01-1.729-.031-2.375 0-.666-.01-1.187-.031-1.562 0-.375-.021-.604-.062-.688l-1.938-.437.094-1.188h6.656l.062 1.188-1.906.437c-.041.063-.083.271-.125.625-.021.334-.041.834-.062 1.5V18.25c.021.646.041 1.146.062 1.5.042.333.084.542.125.625l1.906.438L156.25 22h-6.656Zm4.25-8.5v-1.844c.416.021 1.021.042 1.812.063.813.02 1.792.031 2.938.031 1.125 0 2.083-.01 2.875-.031a66.135 66.135 0 0 0 1.75-.063V13.5a29.938 29.938 0 0 0-1.781-.094c-.73-.02-1.678-.031-2.844-.031-1.209 0-2.188.01-2.938.031-.75.021-1.354.052-1.812.094Zm21.344 8.75c-.834 0-1.573-.167-2.219-.5-.646-.333-1.157-.76-1.531-1.281-.355-.521-.532-1.063-.532-1.625 0-.709.229-1.292.688-1.75.458-.459 1.208-.854 2.25-1.188l4.75-1.594V12.72c0-.521-.156-.99-.469-1.406a3.211 3.211 0 0 0-1.25-1.032 3.993 3.993 0 0 0-1.75-.375c-.521 0-.875.115-1.063.344-.187.208-.302.635-.343 1.281l-.063 1.313c-.75.166-1.385.146-1.906-.063-.521-.229-.781-.594-.781-1.094 0-.354.146-.708.437-1.062a5.505 5.505 0 0 1 1.219-1 8.574 8.574 0 0 1 1.625-.844 7.834 7.834 0 0 1 1.719-.469c1.541 0 2.771.407 3.687 1.22.938.812 1.417 1.874 1.438 3.187l-.063 5.25c0 .396.011.781.031 1.156.042.375.094.656.157.844l2 .375v.968l-1.531.563a8.752 8.752 0 0 1-.813.25c-.25.083-.458.125-.625.125-.646 0-1.062-.365-1.25-1.094l-.344-1.218h.469c-.687.77-1.354 1.354-2 1.75-.625.375-1.271.562-1.937.562Zm.843-1.844a2.97 2.97 0 0 0 1.344-.312c.417-.23.823-.573 1.219-1.032v-3.28l-3.5.937c-.5.125-.865.323-1.094.593-.208.271-.312.615-.312 1.032 0 .52.229 1 .687 1.437a2.449 2.449 0 0 0 1.656.625ZM184.906 22l-.094-1.125 1.938-.469c.021-.104.042-.291.062-.562.021-.271.032-.636.032-1.094.021-.458.031-1.02.031-1.688l.031-2.437c0-.688-.031-1.365-.094-2.031a17.436 17.436 0 0 0-.156-1.594l-2-.438v-1.03l4.188-1.157.437.438-.125 2.624.094.032c.625-1.209 1.26-2.021 1.906-2.438.646-.437 1.25-.656 1.813-.656.479 0 .875.125 1.187.375.334.23.5.583.5 1.063 0 .5-.177.885-.531 1.156-.333.25-.76.375-1.281.375-.375 0-.74-.084-1.094-.25a4.162 4.162 0 0 1-.969-.688l.563.188c-.396.25-.771.604-1.125 1.062-.354.438-.677.99-.969 1.656l.031 2.907.063 1.625c.021.562.041 1.073.062 1.531.021.438.042.781.063 1.031l2.719.407-.063 1.187h-7.219Zm17.282.125-5.532-11.969-1.468-.469.062-1.124h6.094l.062 1.124-1.937.47 4.281 9.5-.812.03 3.937-9.53-1.937-.47.062-1.124h5.188l.062 1.124-1.469.47-5.656 11.968h-.937Zm15.343.125c-1.208 0-2.302-.27-3.281-.813-.958-.541-1.729-1.312-2.312-2.312-.563-1.02-.844-2.219-.844-3.594 0-1.479.302-2.76.906-3.844.604-1.083 1.396-1.916 2.375-2.5a5.695 5.695 0 0 1 3.156-.874c1.625.02 2.896.562 3.813 1.624.916 1.063 1.375 2.563 1.375 4.5V15h-9.594v-1.375h7.531l-.344.406v-.656c0-1.208-.27-2.135-.812-2.781-.542-.646-1.281-.969-2.219-.969-.583 0-1.146.177-1.687.531-.542.334-.979.854-1.313 1.563-.333.687-.5 1.562-.5 2.625v.375c0 1.708.417 3.041 1.25 4 .854.958 1.948 1.437 3.281 1.437.73 0 1.386-.146 1.969-.437.584-.292 1.146-.76 1.688-1.407l.781.72c-.583 1.083-1.323 1.895-2.219 2.437-.896.52-1.896.781-3 .781Zm12.438 0c-.771 0-1.542-.083-2.313-.25-.771-.188-1.427-.427-1.968-.719l-.157-3.343h1.531l.626 2.25c.729.5 1.562.75 2.5.75.708 0 1.281-.167 1.718-.5.438-.355.656-.823.656-1.407a1.92 1.92 0 0 0-.593-1.406c-.396-.417-1.167-.865-2.313-1.344-1.479-.646-2.521-1.26-3.125-1.843-.604-.605-.906-1.376-.906-2.313 0-.75.219-1.406.656-1.969.459-.583 1.084-1.031 1.875-1.344.792-.333 1.709-.5 2.75-.5a10.5 10.5 0 0 1 1.782.157c.604.104 1.104.24 1.5.406l.343 3.25h-1.469l-.75-2.125a2.44 2.44 0 0 0-.75-.281 3.394 3.394 0 0 0-.937-.125c-.729 0-1.313.177-1.75.531-.437.333-.656.77-.656 1.313 0 .624.239 1.135.719 1.53.479.376 1.322.845 2.531 1.407 1.375.625 2.333 1.24 2.875 1.844.541.604.812 1.333.812 2.187 0 1.125-.489 2.052-1.468 2.782-.98.708-2.219 1.062-3.719 1.062Zm17.219-2.188a4.345 4.345 0 0 1-1.626 1.625 4.44 4.44 0 0 1-2.156.563c-1.271 0-2.312-.385-3.125-1.156-.812-.771-1.219-1.927-1.219-3.469l.094-7.469h-2.187V9.5L241 5.844h.594l-.063 3.593-.031 7.688c0 1.083.229 1.885.688 2.406.479.521 1.145.782 2 .782a3.02 3.02 0 0 0 1.312-.282 4.07 4.07 0 0 0 1.125-.75l.563.782Zm-6.782-9.906V8.594h5.844v1.562h-5.844Zm12.406 12.094c-.77 0-1.541-.083-2.312-.25-.771-.188-1.427-.427-1.969-.719l-.156-3.343h1.531l.625 2.25c.729.5 1.563.75 2.5.75.709 0 1.281-.167 1.719-.5.438-.355.656-.823.656-1.407 0-.541-.198-1.01-.594-1.406-.395-.417-1.166-.865-2.312-1.344-1.479-.646-2.521-1.26-3.125-1.843-.604-.605-.906-1.376-.906-2.313 0-.75.219-1.406.656-1.969.458-.583 1.083-1.031 1.875-1.344.792-.333 1.708-.5 2.75-.5.583 0 1.177.053 1.781.157.604.104 1.104.24 1.5.406l.344 3.25h-1.469l-.75-2.125a2.44 2.44 0 0 0-.75-.281 3.394 3.394 0 0 0-.937-.125c-.729 0-1.313.177-1.75.531-.438.333-.657.77-.657 1.313 0 .624.24 1.135.719 1.53.479.376 1.323.845 2.531 1.407 1.376.625 2.334 1.24 2.876 1.844.541.604.812 1.333.812 2.187 0 1.125-.49 2.052-1.469 2.782-.979.708-2.219 1.062-3.719 1.062Z" fill="#fff"/>
</svg>
