<svg width="80" height="80" fill="none" xmlns="http://www.w3.org/2000/svg">
  <rect width="80" height="80" rx="16" fill="#2FB945" fill-opacity=".16"/>
  <g clip-path="url('#clip0_4_164')">
    <path d="M34.772 22c-10.885 0-19.763 8.51-19.75 19.022L15.043 58h30.188c10.865 0 19.737-8.483 19.75-18.978L65.002 22h-30.23Zm0 2h28.226l-.017 15.02C62.968 48.39 55.059 56 45.23 56H17.038l-.018-14.98C17.011 31.634 24.927 24 34.772 24Zm4.22 9.85a4.852 4.852 0 0 0-.482.007C35.11 33.857 33 36.2 33 40c0 3.794 2.122 6.139 5.523 6.139 2.73 0 4.738-1.543 5.077-3.856h-1.895a3.056 3.056 0 0 1-3.185 2.16c-2.205 0-3.579-1.704-3.579-4.44 0-2.734 1.369-4.446 3.569-4.446a3.123 3.123 0 0 1 3.201 2.363H43.6a4.828 4.828 0 0 0-4.608-4.07Zm12.313.015c-3.514 0-5.715 2.366-5.715 6.135 0 3.769 2.164 6.143 5.71 6.143 3.548 0 5.7-2.378 5.7-6.143 0-3.777-2.17-6.139-5.695-6.135ZM23 34v12h7.766v-1.7H24.9v-3.6h5.551v-1.606h-5.55v-3.395h5.865V34H23Zm28.305 1.56c2.322 0 3.754 1.721 3.754 4.44 0 2.702-1.432 4.447-3.754 4.447-2.348 0-3.774-1.747-3.774-4.447 0-2.723 1.47-4.444 3.774-4.44Z" fill="#2FB945"/>
  </g>
  <defs>
    <clipPath id="clip0_4_164">
      <path fill="#fff" transform="translate(15 15)" d="M0 0h50v50H0z"/>
    </clipPath>
  </defs>
</svg>
