<svg width="80" height="80" fill="none" xmlns="http://www.w3.org/2000/svg">
  <rect width="80" height="80" rx="16" fill="#2FB945" fill-opacity=".16"/>
  <path d="M30 22c-7.168 0-13 5.832-13 13 0 14.762 16.68 22.035 22.36 26.766l.64.535.64-.535C46.32 57.036 63 49.762 63 35c0-7.168-5.832-13-13-13-4.055 0-7.617 1.926-10 4.844C37.617 23.926 34.055 22 30 22Zm0 2c1.098 0 2.148.176 3.148.477a1.002 1.002 0 1 0 1.832.73 11.032 11.032 0 0 1 4.188 3.719l.719 1.082A1 1 0 0 0 39 31c0 .55.45 1 1 1s1-.45 1-1a1 1 0 0 0-.887-.992l.719-1.082a11.048 11.048 0 0 1 4.887-4.047.994.994 0 0 0-.219.621c0 .55.45 1 1 1s1-.45 1-1a.995.995 0 0 0-.797-.977A10.95 10.95 0 0 1 50 24c.52 0 1.031.047 1.531.117A.994.994 0 0 0 51 25c0 .55.45 1 1 1a1.002 1.002 0 0 0 .773-1.633 10.964 10.964 0 0 1 8.04 8.649A1.002 1.002 0 0 0 61 35a16.585 16.585 0 0 1-.376 3.508 1.002 1.002 0 0 0-1.125.992c0 .395.23.75.594.91a17.943 17.943 0 0 1-1.098 2.524 1 1 0 1 0-.543.957c-2.734 4.547-7.25 8.058-11.465 10.988A.996.996 0 0 0 45 55c0 .371.207.71.531.883l-1.933 1.32A.978.978 0 0 0 43 57c-.55 0-1 .45-1 1a1 1 0 0 0 .043.281A45.38 45.38 0 0 0 40 59.777a45.38 45.38 0 0 0-2.043-1.496A1 1 0 0 0 38 58a1.002 1.002 0 0 0-1.598-.8c-.629-.427-1.27-.864-1.933-1.317.324-.172.531-.512.531-.883a1 1 0 0 0-1.992-.125c-4.211-2.926-8.727-6.438-11.461-10.984A1.002 1.002 0 0 0 23 43a1.002 1.002 0 0 0-2-.075 18.214 18.214 0 0 1-1.094-2.512A.944.944 0 0 0 20 40a1 1 0 0 0-.469-.848A16.428 16.428 0 0 1 19 35a1.002 1.002 0 0 0 .188-1.984 10.968 10.968 0 0 1 8.043-8.653A.995.995 0 0 0 27 25c0 .55.45 1 1 1s1-.45 1-1a.994.994 0 0 0-.531-.883c.5-.07 1.011-.117 1.531-.117Zm-5 3c-.55 0-1 .45-1 1s.45 1 1 1 1-.45 1-1-.45-1-1-1Zm6 0c-.55 0-1 .45-1 1s.45 1 1 1 1-.45 1-1-.45-1-1-1Zm6 0c-.55 0-1 .45-1 1s.45 1 1 1 1-.45 1-1-.45-1-1-1Zm12 0c-.55 0-1 .45-1 1s.45 1 1 1 1-.45 1-1-.45-1-1-1Zm6 0c-.55 0-1 .45-1 1s.45 1 1 1 1-.45 1-1-.45-1-1-1Zm-11.5.5c-.55 0-1 .45-1 1s.45 1 1 1 1-.45 1-1-.45-1-1-1ZM22 30c-.55 0-1 .45-1 1s.45 1 1 1 1-.45 1-1-.45-1-1-1Zm6 0c-.55 0-1 .45-1 1s.45 1 1 1 1-.45 1-1-.45-1-1-1Zm6 0c-.55 0-1 .45-1 1s.45 1 1 1 1-.45 1-1-.45-1-1-1Zm12 0c-.55 0-1 .45-1 1s.45 1 1 1 1-.45 1-1-.45-1-1-1Zm6 0c-.55 0-1 .45-1 1s.45 1 1 1 1-.45 1-1-.45-1-1-1Zm6 0c-.55 0-1 .45-1 1s.45 1 1 1 1-.45 1-1-.45-1-1-1Zm-33 3c-.55 0-1 .45-1 1s.45 1 1 1 1-.45 1-1-.45-1-1-1Zm6 0c-.55 0-1 .45-1 1s.45 1 1 1 1-.45 1-1-.45-1-1-1Zm6 0c-.55 0-1 .45-1 1s.45 1 1 1 1-.45 1-1-.45-1-1-1Zm6 0c-.55 0-1 .45-1 1s.45 1 1 1 1-.45 1-1-.45-1-1-1Zm6 0c-.55 0-1 .45-1 1s.45 1 1 1 1-.45 1-1-.45-1-1-1Zm6 0c-.55 0-1 .45-1 1s.45 1 1 1 1-.45 1-1-.45-1-1-1Zm-33 3c-.55 0-1 .45-1 1s.45 1 1 1 1-.45 1-1-.45-1-1-1Zm6 0c-.55 0-1 .45-1 1s.45 1 1 1 1-.45 1-1-.45-1-1-1Zm6 0c-.55 0-1 .45-1 1s.45 1 1 1 1-.45 1-1-.45-1-1-1Zm6 0c-.55 0-1 .45-1 1s.45 1 1 1 1-.45 1-1-.45-1-1-1Zm6 0c-.55 0-1 .45-1 1s.45 1 1 1 1-.45 1-1-.45-1-1-1Zm6 0c-.55 0-1 .45-1 1s.45 1 1 1 1-.45 1-1-.45-1-1-1Zm6 0c-.55 0-1 .45-1 1s.45 1 1 1 1-.45 1-1-.45-1-1-1Zm-33 3c-.55 0-1 .45-1 1s.45 1 1 1 1-.45 1-1-.45-1-1-1Zm6 0c-.55 0-1 .45-1 1s.45 1 1 1 1-.45 1-1-.45-1-1-1Zm6 0c-.55 0-1 .45-1 1s.45 1 1 1 1-.45 1-1-.45-1-1-1Zm6 0c-.55 0-1 .45-1 1s.45 1 1 1 1-.45 1-1-.45-1-1-1Zm6 0c-.55 0-1 .45-1 1s.45 1 1 1 1-.45 1-1-.45-1-1-1Zm6 0c-.55 0-1 .45-1 1s.45 1 1 1 1-.45 1-1-.45-1-1-1Zm-27 3c-.55 0-1 .45-1 1s.45 1 1 1 1-.45 1-1-.45-1-1-1Zm6 0c-.55 0-1 .45-1 1s.45 1 1 1 1-.45 1-1-.45-1-1-1Zm6 0c-.55 0-1 .45-1 1s.45 1 1 1 1-.45 1-1-.45-1-1-1Zm6 0c-.55 0-1 .45-1 1s.45 1 1 1 1-.45 1-1-.45-1-1-1Zm6 0c-.55 0-1 .45-1 1s.45 1 1 1 1-.45 1-1-.45-1-1-1Zm-27 3c-.55 0-1 .45-1 1s.45 1 1 1 1-.45 1-1-.45-1-1-1Zm6 0c-.55 0-1 .45-1 1s.45 1 1 1 1-.45 1-1-.45-1-1-1Zm6 0c-.55 0-1 .45-1 1s.45 1 1 1 1-.45 1-1-.45-1-1-1Zm6 0c-.55 0-1 .45-1 1s.45 1 1 1 1-.45 1-1-.45-1-1-1Zm6 0c-.55 0-1 .45-1 1s.45 1 1 1 1-.45 1-1-.45-1-1-1Zm6 0c-.55 0-1 .45-1 1s.45 1 1 1 1-.45 1-1-.45-1-1-1Zm-27 3c-.55 0-1 .45-1 1s.45 1 1 1 1-.45 1-1-.45-1-1-1Zm6 0c-.55 0-1 .45-1 1s.45 1 1 1 1-.45 1-1-.45-1-1-1Zm6 0c-.55 0-1 .45-1 1s.45 1 1 1 1-.45 1-1-.45-1-1-1Zm6 0c-.55 0-1 .45-1 1s.45 1 1 1 1-.45 1-1-.45-1-1-1Zm6 0c-.55 0-1 .45-1 1s.45 1 1 1 1-.45 1-1-.45-1-1-1Zm-21 3c-.55 0-1 .45-1 1s.45 1 1 1 1-.45 1-1-.45-1-1-1Zm6 0c-.55 0-1 .45-1 1s.45 1 1 1 1-.45 1-1-.45-1-1-1Zm6 0c-.55 0-1 .45-1 1s.45 1 1 1 1-.45 1-1-.45-1-1-1Zm6 0c-.55 0-1 .45-1 1s.45 1 1 1 1-.45 1-1-.45-1-1-1Zm-9 3c-.55 0-1 .45-1 1s.45 1 1 1 1-.45 1-1-.45-1-1-1Z" fill="#2FB945"/>
</svg>
