<svg width="80" height="80" fill="none" xmlns="http://www.w3.org/2000/svg">
  <rect width="80" height="80" rx="16" fill="#2FB945" fill-opacity=".16"/>
  <path d="M40 17c-3.345 0-6.265 1.9-7.74 4.676a8.787 8.787 0 0 0-2.233-.287 8.62 8.62 0 0 0-6.119 2.52c-2.253 2.252-2.99 5.462-2.232 8.35C18.902 33.736 17 36.656 17 40c0 3.345 1.9 6.265 4.676 7.74-.758 2.888-.019 6.099 2.234 8.352a8.62 8.62 0 0 0 6.12 2.52 8.78 8.78 0 0 0 2.232-.288C33.736 61.1 36.655 63 40 63c3.345 0 6.265-1.9 7.74-4.676a8.787 8.787 0 0 0 2.233.287 8.62 8.62 0 0 0 6.119-2.52c2.253-2.252 2.99-5.462 2.232-8.35C61.098 46.264 63 43.344 63 40c0-3.345-1.9-6.265-4.676-7.74.758-2.888.019-6.099-2.234-8.352a8.62 8.62 0 0 0-6.12-2.52 8.78 8.78 0 0 0-2.232.288C46.264 18.9 43.345 17 40 17Zm0 2.19a6.575 6.575 0 0 1 5.807 3.513l.812 1.531 1.678-.44a6.607 6.607 0 0 1 1.676-.216c1.735 0 3.358.668 4.57 1.879 1.614 1.614 2.252 4.007 1.664 6.246l-.44 1.678 1.53.812A6.577 6.577 0 0 1 60.81 40a6.575 6.575 0 0 1-3.514 5.807l-1.53.812.44 1.678c.587 2.239-.05 4.632-1.664 6.246a6.416 6.416 0 0 1-4.57 1.879c-.566 0-1.13-.073-1.676-.217l-1.678-.44-.812 1.532A6.577 6.577 0 0 1 40 60.81a6.575 6.575 0 0 1-5.807-3.514l-.812-1.531-1.678.44a6.607 6.607 0 0 1-1.676.216 6.418 6.418 0 0 1-4.57-1.879c-1.614-1.614-2.252-4.007-1.664-6.246l.44-1.678-1.53-.812A6.58 6.58 0 0 1 19.19 40a6.575 6.575 0 0 1 3.514-5.807l1.531-.812-.44-1.678c-.586-2.239.049-4.632 1.663-6.246a6.416 6.416 0 0 1 4.57-1.879c.566 0 1.13.073 1.676.217l1.678.44.814-1.532A6.573 6.573 0 0 1 40 19.19Zm9.15 13.533L36.715 45.156l-5.865-5.863-1.415 1.414 7.28 7.277 13.85-13.847-1.415-1.414Z" fill="#2FB945"/>
</svg>
