<svg width="80" height="80" fill="none" xmlns="http://www.w3.org/2000/svg">
  <rect width="80" height="80" rx="16" fill="#2FB945" fill-opacity=".16"/>
  <path d="M20 19a1 1 0 0 0-1 1v40a1 1 0 0 0 1 1h24.617a12.01 12.01 0 0 1-.92-2H21V21h38v22.697a11.93 11.93 0 0 1 2 .92V20a1 1 0 0 0-1-1H20Zm16 5c-1.645 0-3 1.355-3 3s1.355 3 3 3h8c1.645 0 3-1.355 3-3s-1.355-3-3-3h-8Zm0 2h8c.554 0 1 .445 1 1 0 .555-.446 1-1 1h-8c-.554 0-1-.445-1-1 0-.555.446-1 1-1Zm19 19c-5.5 0-10 4.5-10 10s4.5 10 10 10 10-4.5 10-10-4.5-10-10-10Zm0 2c4.4 0 8 3.6 8 8s-3.6 8-8 8-8-3.6-8-8 3.6-8 8-8Zm4.3 3.4-5.4 6.3-3.3-2.5-1.2 1.6 4.7 3.6 6.7-7.7-1.5-1.3Z" fill="#2FB945"/>
</svg>
