<svg width="80" height="80" fill="none" xmlns="http://www.w3.org/2000/svg">
  <rect width="80" height="80" rx="16" fill="#2FB945" fill-opacity=".16"/>
  <g clip-path="url('#clip0_1_882')">
    <path d="M54.785 18.803a3.512 3.512 0 0 0-1.47.338c-.501.24-.93.612-1.317 1.064-.386-.446-.815-.81-1.312-1.043-.926-.434-1.965-.41-2.963-.123a1 1 0 1 0 .554 1.922c.697-.201 1.158-.176 1.559.012.4.188.833.6 1.27 1.474a1 1 0 0 0 1.788 0c.438-.875.884-1.311 1.286-1.504.401-.192.838-.215 1.506.006a1 1 0 1 0 .629-1.898 4.646 4.646 0 0 0-1.53-.248ZM24.5 22c-2.326 0-4.194 1.813-4.416 4.084C18.365 26.301 17 27.726 17 29.5c0 1.921 1.579 3.5 3.5 3.5H29c2.197 0 4-1.803 4-4s-1.803-4-4-4c-.12 0-.214.05-.33.06-.61-1.757-2.21-3.06-4.17-3.06Zm16.53 0a1 1 0 0 0-.913.531l-9 17a1 1 0 0 0-.117.328 14.43 14.43 0 0 0-2.006-.107 14.397 14.397 0 0 0-4.611.863l-.012.004-8.738 3.451a1 1 0 1 0 .734 1.86l8.701-3.436a12.4 12.4 0 0 1 7.963-.17l11.477 4.621.035.012a2.243 2.243 0 0 1 1.463 2.865 2.246 2.246 0 0 1-2.688 1.477l-9.076-2.27a1 1 0 0 0-1.1 1.486 1.002 1.002 0 0 0 .616.456l9.074 2.267c1.853.463 3.754-.385 4.693-1.972l12.43-5.873.043-.026a1.921 1.921 0 0 1 2.656.664 1.92 1.92 0 0 1-.642 2.64l-17 9.907-.012.008a4.954 4.954 0 0 1-4.406.404l-11.207-4.357a10.054 10.054 0 0 0-8.631.64l-3.252 1.858a1.003 1.003 0 0 0-.373 1.365 1.001 1.001 0 0 0 1.365.373l3.25-1.86a8.054 8.054 0 0 1 6.916-.513l11.207 4.36a6.959 6.959 0 0 0 6.184-.569l17.002-9.906.01-.008a3.95 3.95 0 0 0 1.304-5.371 3.957 3.957 0 0 0-3.931-1.87 3.903 3.903 0 0 0-1.47.518l.089-.044L56 45.048v-2.252c2.81-.495 5-2.85 5-5.797 0-3.302-2.698-6-6-6-1.507 0-2.793.47-3.77 1.227l-3.335-6.674a1 1 0 0 0-1.45-.385l-2.127 1.418-2.46-4.1a1 1 0 0 0-.829-.486ZM24.5 24c1.315 0 2.359.995 2.473 2.281a1 1 0 0 0 1.34.852c.236-.086.46-.133.687-.133 1.117 0 2 .883 2 2s-.883 2-2 2h-8.5c-.84 0-1.5-.66-1.5-1.5a1.484 1.484 0 0 1 1.834-1.457 1 1 0 0 0 1.21-1.137A2.742 2.742 0 0 1 22 26.5c0-1.393 1.108-2.5 2.5-2.5Zm16.555 1.033 2.088 3.48a1.001 1.001 0 0 0 1.412.319l2.056-1.371 3.202 6.402A6.34 6.34 0 0 0 49 37c0 1.472.485 2.958 1.502 4.102.82.922 2.068 1.473 3.498 1.697v3.195l-5.897 2.785c-.135-1.674-1.26-3.192-2.956-3.728l.072.025-11.543-4.648-.037-.012c-.21-.066-.424-.117-.637-.174l3.799-7.174 2.644 1.764a1 1 0 0 0 1.262-.125l1.42-1.42 2.318 1.545a1 1 0 1 0 1.11-1.664l-3-2a1 1 0 0 0-1.262.125l-1.42 1.42-2.133-1.42 3.315-6.26ZM55 33c2.221 0 4 1.779 4 4 0 1.866-1.282 3.351-3 3.8V37a1 1 0 1 0-2 0v3.81c-.838-.184-1.533-.51-2.002-1.037-.65-.73-.998-1.745-.998-2.773 0-.772.197-1.537.57-2.18a1 1 0 0 0 .389-.539c.014-.017.024-.038.04-.054C52.648 33.495 53.582 33 55 33Z" fill="#2FB945"/>
  </g>
  <defs>
    <clipPath id="clip0_1_882">
      <path fill="#fff" transform="translate(15 15)" d="M0 0h50v50H0z"/>
    </clipPath>
  </defs>
</svg>
