<svg width="80" height="80" fill="none" xmlns="http://www.w3.org/2000/svg">
  <rect width="80" height="80" rx="16" fill="#2FB945" fill-opacity=".16"/>
  <g clip-path="url('#clip0_1_810')">
    <path d="M48.75 15c-2.906.09-7.363.66-9.875 3.75-.926 1.14-1.488 2.371-1.719 3.531-.23 1.16-.16 2.317.5 3.188.766 1.008 1.88 1.332 2.97 1.312-.458 1.742-.692 3.625-.813 5.594-.247 3.973-.012 8.27.093 12.375a15.594 15.594 0 0 0-2.218-3.344 16.67 16.67 0 0 0-1.313-1.312c.934-.805 1.523-2.008 1.313-3.469-.489-3.406-4.633-7.559-12.282-6.438-2.87.422-6.214 1.832-9.906 4a.996.996 0 0 0-.484.895.997.997 0 0 0 .547.855c.523.25 1.183 1.11 1.843 2.344.66 1.235 1.352 2.77 2.22 4.282.866 1.511 1.92 3.019 3.437 4.062 1.515 1.043 3.484 1.594 5.875 1.25 2.796-.402 4.855-1.73 6.03-3.313a5.1 5.1 0 0 0 .938-2.124c.09.097.196.183.282.28 2.546 2.93 3.68 6.833 3.78 11.594a11.06 11.06 0 0 0-5.343 3.094C33.605 56.594 32.41 56 31 56c-1.7 0-3.125.828-4.219 1.969-.808-.559-1.726-.969-2.78-.969-1.595 0-2.903.863-3.813 2.031-.07-.004-.106-.031-.188-.031-2.75 0-5 2.25-5 5-.004.36.184.695.496.879.313.18.696.18 1.008 0 .313-.184.5-.52.496-.879a2.986 2.986 0 0 1 3.406-2.969 1 1 0 0 0 1-.5A2.942 2.942 0 0 1 24 59c.844 0 1.61.348 2.156.906a1 1 0 0 0 1.532-.156A3.972 3.972 0 0 1 31 58c1.195 0 2.258.535 3 1.375.195.21.469.328.758.324.285-.008.558-.136.742-.355a8.998 8.998 0 0 1 7-3.344c1.582 0 3.05.406 4.344 1.125a.997.997 0 0 0 1.094-.094A4.998 4.998 0 0 1 51 56c2.348 0 4.297 1.617 4.844 3.781.074.293.273.535.547.664.273.125.59.125.86-.008.546-.27 1.128-.437 1.75-.437 2.218 0 4 1.781 4 4-.005.36.183.695.495.879.313.18.696.18 1.008 0 .313-.184.5-.52.496-.879 0-3.3-2.7-6-6-6-.59 0-1.094.215-1.625.375C56.325 55.835 53.91 54 51 54c-1.379 0-2.637.465-3.719 1.156-1.457-.71-3.054-1.156-4.78-1.156-.18 0-.356.023-.532.031a31.13 31.13 0 0 0-.125-1.843.974.974 0 0 0 .031-.282c0-2.976.742-5.074 2.406-6.343a5.81 5.81 0 0 1 1.063-.626 4.118 4.118 0 0 0 .156 1.657c.438 1.468 1.707 2.91 3.781 3.281 2.582.46 4.68-.625 6.188-1.844.754-.61 1.386-1.258 1.906-1.781.52-.523.988-.922 1.125-1 .469-.273.633-.867.375-1.344-.625-1.191-1.539-2.656-3-3.843C54.415 38.874 52.41 38 49.781 38c-1.242 0-2.293.21-3.125.656-.832.446-1.445 1.2-1.593 2.094-.133.805.046 1.453.312 2a8.195 8.195 0 0 0-2.312 1.219 7.021 7.021 0 0 0-1.157 1.125c-.101-4.282-.367-8.672-.125-12.594.075-1.195.22-2.324.407-3.406.152.113.296.218.468.312 1.457.778 3.528.852 5.282-.531C52.324 25.41 52 18.949 52 16c0-.55-.45-1-1-1-.496 0-1.281-.031-2.25 0Zm1.188 2.094c-.02 3.144-.18 7.789-3.22 10.187-1.155.91-2.25.809-3.124.344a2.48 2.48 0 0 1-.906-.813c.195-.66.421-1.296.687-1.875.953-2.066 2.379-3.59 4.594-4.53a1.002 1.002 0 1 0-.625-1.907 1.071 1.071 0 0 0-.156.063c-2.676 1.136-4.508 3.148-5.625 5.562-.102.223-.192.457-.282.688a1.07 1.07 0 0 0-.218.062c-.72.277-1.176.219-1.813-.625-.16-.211-.312-.773-.156-1.563.156-.789.61-1.753 1.344-2.656 2.164-2.664 6.964-2.902 9.5-2.937ZM28.063 32c5.148.074 7.406 3.16 7.656 4.906.156 1.078-.176 1.7-.75 2.032-2.965-2.137-6.953-3.56-12.094-4.157a1.05 1.05 0 0 0-.312 0c-.551.016-.985.48-.97 1.032.016.55.481.984 1.032.968 5.067.586 8.75 1.973 11.406 3.969.184.605.059 1.621-.687 2.625-.836 1.125-2.36 2.168-4.688 2.5-1.968.281-3.328-.121-4.468-.906-1.141-.785-2.051-1.992-2.844-3.375-.793-1.383-1.438-2.91-2.156-4.25a10.874 10.874 0 0 0-1.438-2.063c3.031-1.656 5.793-2.812 7.938-3.125.855-.125 1.64-.168 2.375-.156Zm21.718 8c2.2 0 3.692.691 4.844 1.625.922.75 1.566 1.672 2.094 2.563-.242.222-.492.398-.75.656-.524.527-1.11 1.105-1.75 1.625-1.281 1.035-2.688 1.773-4.563 1.437h-.03c-1.364-.242-1.927-1-2.188-1.875-.22-.73-.024-1.476.093-1.75 1.535-.242 3.457-.199 5.875.188a1 1 0 1 0 .313-1.969c-2.442-.39-4.547-.465-6.313-.219-.035.004-.058.028-.093.032-.258-.344-.375-.676-.282-1.25.043-.254.145-.434.563-.657.418-.222 1.172-.406 2.187-.406Z" fill="#2FB945"/>
  </g>
  <defs>
    <clipPath id="clip0_1_810">
      <path fill="#fff" transform="translate(15 15)" d="M0 0h50v50H0z"/>
    </clipPath>
  </defs>
</svg>
