<svg width="80" height="80" fill="none" xmlns="http://www.w3.org/2000/svg">
  <rect width="80" height="80" rx="16" fill="#2FB945" fill-opacity=".16"/>
  <path d="M52 19s-4.216-.092-7.23 2.205c-2.693 2.052-2.763 5.798-2.762 7.422-.47.533-1.665 2.046-2.43 4.55-.391-.894-.804-1.59-1.184-2.105l.061-.162.02-.06c.223-.751.4-1.775.4-3.163 0-1.11-.248-2.31-1.016-3.316-1.723-2.258-4.198-3.061-6.242-3.299-2.044-.238-3.658.09-3.658.09a1.001 1.001 0 0 0-.797.797s-1.307 6.453 3.21 9.9c1.005.768 2.205 1.016 3.316 1.016 1.387 0 2.41-.177 3.162-.4a.994.994 0 0 0 .06-.02l.012-.004c.737 1.06 1.71 3.074 1.992 6.549H19v2h42v-2H41v-2c0-3.938 1.892-6.36 2.463-7.01 1.666-.002 5.313-.11 7.332-2.76C53.092 24.216 53 20 53 20a1 1 0 0 0-1-1Zm-1.137 2.137c-.112 1.192-.4 3.232-1.658 4.883-1.104 1.448-3.457 1.762-5.086 1.86.1-1.628.413-3.981 1.861-5.085 1.65-1.258 3.69-1.546 4.883-1.658Zm-20.326 1.89c.23.009.492.03.799.065 1.664.193 3.648.808 4.934 2.492.424.556.605 1.29.605 2.104 0 1.213-.15 2.025-.315 2.578l-.08.215-.214.08c-.553.163-1.365.314-2.578.314-.814 0-1.548-.18-2.104-.605-2.926-2.234-2.597-6.05-2.467-7.153.351-.041.733-.116 1.42-.09ZM20 43a1 1 0 1 0 0 2 1 1 0 0 0 0-2Zm8 0a1 1 0 1 0 0 2 1 1 0 0 0 0-2Zm8 0a1 1 0 1 0 0 2 1 1 0 0 0 0-2Zm8 0a1 1 0 1 0 0 2 1 1 0 0 0 0-2Zm8 0a1 1 0 1 0 0 2 1 1 0 0 0 0-2Zm8 0a1 1 0 1 0 0 2 1 1 0 0 0 0-2Zm-36 4a1 1 0 1 0 0 2 1 1 0 0 0 0-2Zm8 0a1 1 0 1 0 0 2 1 1 0 0 0 0-2Zm8 0a1 1 0 1 0 0 2 1 1 0 0 0 0-2Zm8 0a1 1 0 1 0 0 2 1 1 0 0 0 0-2Zm8 0a1 1 0 1 0 0 2 1 1 0 0 0 0-2Zm-36 4a1 1 0 1 0 0 2 1 1 0 0 0 0-2Zm8 0a1 1 0 1 0 0 2 1 1 0 0 0 0-2Zm8 0a1 1 0 1 0 0 2 1 1 0 0 0 0-2Zm8 0a1 1 0 1 0 0 2 1 1 0 0 0 0-2Zm8 0a1 1 0 1 0 0 2 1 1 0 0 0 0-2Zm8 0a1 1 0 1 0 0 2 1 1 0 0 0 0-2Zm-36 4a1 1 0 1 0 0 2 1 1 0 0 0 0-2Zm8 0a1 1 0 1 0 0 2 1 1 0 0 0 0-2Zm8 0a1 1 0 1 0 0 2 1 1 0 0 0 0-2Zm8 0a1 1 0 1 0 0 2 1 1 0 0 0 0-2Zm8 0a1 1 0 1 0 0 2 1 1 0 0 0 0-2Zm-36 4a1 1 0 1 0 0 2 1 1 0 0 0 0-2Zm8 0a1 1 0 1 0 0 2 1 1 0 0 0 0-2Zm8 0a1 1 0 1 0 0 2 1 1 0 0 0 0-2Zm8 0a1 1 0 1 0 0 2 1 1 0 0 0 0-2Zm8 0a1 1 0 1 0 0 2 1 1 0 0 0 0-2Zm8 0a1 1 0 1 0 0 2 1 1 0 0 0 0-2Z" fill="#2FB945"/>
</svg>
